<svg xmlns="http://www.w3.org/2000/svg" viewBox="0 0 580 104"  fill="none"><rect id="backgroundrect" width="100%" height="100%" x="0" y="0" fill="none" stroke="none"/>
<g class="currentLayer" style=""><path fill="#06396c" d="M106.24270364189148,53.19592591047287 c0,28.315 -22.954,51.269 -51.27,51.269 C26.658703641891478,104.46492591047287 3.7037036418914795,81.51092591047286 3.7037036418914795,53.19492591047287 C3.7037036418914795,24.880925910472868 26.65770364189148,1.9259259104728699 54.97370364189148,1.9259259104728699 c28.315,0 51.269,22.954 51.269,51.27 z" id="svg_1" class="" fill-opacity="1"/><path fill="#fff" d="M518.259 69.478V44.66h3.803l.35 4.753c.768-1.634 1.935-2.935 3.503-3.903 1.568-.967 3.503-1.45 5.804-1.45v4.402h-1.15c-1.468 0-2.819.267-4.054.801-1.234.5-2.218 1.368-2.952 2.602-.734 1.234-1.101 2.936-1.101 5.104v12.51h-4.203Zm-15.828.601c-2.369 0-4.47-.534-6.305-1.601-1.835-1.101-3.286-2.619-4.353-4.554-1.034-1.935-1.551-4.22-1.551-6.855 0-2.602.517-4.87 1.551-6.805 1.034-1.968 2.468-3.486 4.303-4.554 1.868-1.1 4.02-1.65 6.455-1.65 2.402 0 4.47.55 6.205 1.65 1.768 1.068 3.119 2.486 4.053 4.254a12.03 12.03 0 0 1 1.401 5.704c0 .367-.017.734-.05 1.1v1.252h-19.765c.1 1.901.534 3.486 1.301 4.753.8 1.235 1.784 2.169 2.952 2.802a8.036 8.036 0 0 0 3.803.951c1.735 0 3.186-.4 4.353-1.2 1.168-.801 2.018-1.885 2.552-3.253h4.153c-.667 2.301-1.951 4.22-3.853 5.754-1.868 1.501-4.27 2.252-7.205 2.252Zm0-22.467c-2.002 0-3.786.617-5.354 1.851-1.535 1.201-2.419 2.97-2.652 5.304h15.612c-.1-2.235-.868-3.986-2.302-5.254-1.435-1.267-3.203-1.901-5.304-1.901Zm-26.482 14.06c-1.401 0-2.686-.183-3.853-.55l-2.502 2.352c.367.267.817.5 1.351.7.567.167 1.368.334 2.402.5 1.034.134 2.485.284 4.353.451 3.336.234 5.721 1 7.155 2.302 1.435 1.3 2.152 3.002 2.152 5.104 0 1.434-.4 2.802-1.201 4.103-.767 1.3-1.968 2.368-3.603 3.202-1.601.834-3.669 1.251-6.204 1.251-2.235 0-4.22-.3-5.955-.9-1.734-.568-3.085-1.452-4.053-2.653-.967-1.167-1.451-2.652-1.451-4.453 0-.934.25-1.951.751-3.052.5-1.068 1.434-2.085 2.802-3.052-.734-.3-1.368-.618-1.902-.951-.5-.367-.967-.767-1.401-1.201v-1.151l4.253-4.203c-1.968-1.668-2.952-3.87-2.952-6.605 0-1.635.384-3.12 1.151-4.453.767-1.335 1.885-2.386 3.353-3.153 1.467-.8 3.252-1.2 5.354-1.2 1.434 0 2.735.2 3.903.6h9.157v3.152l-4.654.2c.967 1.401 1.451 3.02 1.451 4.854 0 1.634-.4 3.119-1.201 4.453-.767 1.334-1.885 2.402-3.352 3.203-1.435.767-3.203 1.15-5.304 1.15Zm0-3.452c1.768 0 3.169-.45 4.203-1.351 1.067-.934 1.601-2.269 1.601-4.003 0-1.701-.534-3.002-1.601-3.903-1.034-.934-2.435-1.401-4.203-1.401-1.802 0-3.236.467-4.304 1.4-1.034.902-1.551 2.203-1.551 3.904 0 1.734.517 3.069 1.551 4.003 1.068.9 2.502 1.35 4.304 1.35Zm-7.306 14.46c0 1.669.701 2.903 2.102 3.704 1.401.834 3.152 1.25 5.254 1.25 2.068 0 3.719-.45 4.953-1.35 1.268-.901 1.902-2.102 1.902-3.603 0-1.068-.434-2.002-1.301-2.802-.867-.768-2.469-1.218-4.804-1.351-1.834-.134-3.419-.3-4.753-.5-1.368.733-2.269 1.517-2.702 2.351-.434.867-.651 1.635-.651 2.302Zm-19.816-2.601c-2.068 0-3.786-.35-5.154-1.051-1.368-.7-2.385-1.635-3.052-2.802a7.536 7.536 0 0 1-1.001-3.803c0-2.535.967-4.487 2.902-5.854 1.935-1.368 4.57-2.052 7.906-2.052h6.705v-.3c0-2.168-.567-3.803-1.701-4.904-1.134-1.134-2.652-1.701-4.553-1.701-1.635 0-3.053.417-4.254 1.25-1.167.801-1.901 1.986-2.201 3.553h-4.304c.167-1.8.768-3.319 1.802-4.553 1.067-1.234 2.385-2.168 3.953-2.802a12.65 12.65 0 0 1 5.004-1c3.469 0 6.071.933 7.805 2.801 1.768 1.835 2.652 4.287 2.652 7.356v15.261h-3.752l-.251-4.453c-.7 1.401-1.734 2.602-3.102 3.603-1.334.967-3.136 1.45-5.404 1.45Zm.651-3.553c1.601 0 2.968-.417 4.103-1.25a7.919 7.919 0 0 0 2.652-3.253c.6-1.335.9-2.736.9-4.203v-.05h-6.354c-2.469 0-4.22.433-5.254 1.3-1.001.834-1.502 1.885-1.502 3.153 0 1.3.467 2.352 1.401 3.152.968.767 2.319 1.151 4.054 1.151Zm-36.041 2.952V44.66h3.803l.25 4.453a9.018 9.018 0 0 1 3.453-3.703c1.501-.9 3.202-1.35 5.104-1.35 2.935 0 5.27.9 7.005 2.701 1.768 1.768 2.652 4.504 2.652 8.206v14.511h-4.203v-14.06c0-5.17-2.135-7.756-6.405-7.756-2.135 0-3.92.784-5.354 2.352-1.401 1.534-2.102 3.736-2.102 6.605v12.86h-4.203Zm-17.314.601c-2.068 0-3.786-.35-5.153-1.051-1.368-.7-2.386-1.635-3.053-2.802a7.535 7.535 0 0 1-1-3.803c0-2.535.967-4.487 2.902-5.854 1.934-1.368 4.57-2.052 7.906-2.052h6.705v-.3c0-2.168-.567-3.803-1.702-4.904-1.134-1.134-2.652-1.701-4.553-1.701-1.635 0-3.052.417-4.253 1.25-1.168.801-1.902 1.986-2.202 3.553h-4.303c.167-1.8.767-3.319 1.801-4.553 1.068-1.234 2.385-2.168 3.953-2.802a12.65 12.65 0 0 1 5.004-1c3.469 0 6.071.933 7.806 2.801 1.768 1.835 2.652 4.287 2.652 7.356v15.261h-3.753l-.25-4.453c-.701 1.401-1.735 2.602-3.102 3.603-1.335.967-3.136 1.45-5.405 1.45Zm.651-3.553c1.601 0 2.969-.417 4.103-1.25a7.903 7.903 0 0 0 2.652-3.253c.6-1.335.901-2.736.901-4.203v-.05h-6.355c-2.469 0-4.22.433-5.254 1.3-1.001.834-1.501 1.885-1.501 3.153 0 1.3.467 2.352 1.401 3.152.967.767 2.318 1.151 4.053 1.151Zm-49.521 2.952V34.452h4.904l12.61 24.418 12.509-24.418h4.954v35.026h-4.203v-27.52l-11.709 22.517h-3.153l-11.708-22.467v27.47h-4.204Zm-30.652.601c-2.469 0-4.637-.567-6.505-1.701-1.835-1.135-3.269-2.686-4.303-4.654-1.001-1.968-1.501-4.203-1.501-6.705s.517-4.72 1.551-6.655c1.034-1.968 2.468-3.503 4.303-4.603 1.835-1.135 4.003-1.702 6.505-1.702 2.035 0 3.836.417 5.404 1.251 1.568.834 2.785 2.002 3.653 3.503V33.45h4.203v36.027h-3.803l-.4-4.103c-.801 1.201-1.952 2.285-3.453 3.253-1.501.967-3.386 1.45-5.654 1.45Zm.45-3.653c1.668 0 3.136-.384 4.403-1.15 1.301-.801 2.302-1.902 3.003-3.303.734-1.401 1.101-3.036 1.101-4.904 0-1.868-.367-3.503-1.101-4.904-.701-1.4-1.702-2.485-3.003-3.252-1.267-.8-2.735-1.201-4.403-1.201-1.634 0-3.102.4-4.403 1.2-1.268.768-2.269 1.852-3.002 3.253-.701 1.401-1.051 3.036-1.051 4.904 0 1.868.35 3.503 1.051 4.904.733 1.4 1.734 2.502 3.002 3.302 1.301.767 2.769 1.151 4.403 1.151Zm-27.457 3.052V44.66h3.803l.35 4.753c.768-1.634 1.935-2.935 3.503-3.903 1.568-.967 3.503-1.45 5.804-1.45v4.402h-1.15c-1.468 0-2.819.267-4.054.801-1.234.5-2.218 1.368-2.952 2.602-.734 1.234-1.101 2.936-1.101 5.104v12.51h-4.203Zm-16.803.601c-2.335 0-4.436-.534-6.304-1.601-1.868-1.068-3.353-2.569-4.454-4.504-1.067-1.968-1.601-4.27-1.601-6.905 0-2.635.551-4.92 1.651-6.855 1.101-1.968 2.586-3.486 4.454-4.554 1.901-1.067 4.019-1.6 6.355-1.6 2.335 0 4.436.533 6.304 1.6 1.868 1.068 3.336 2.586 4.404 4.554 1.1 1.935 1.651 4.22 1.651 6.855 0 2.635-.551 4.937-1.651 6.905-1.101 1.935-2.602 3.436-4.504 4.504-1.868 1.067-3.969 1.6-6.305 1.6Zm0-3.603c1.435 0 2.769-.35 4.003-1.05 1.235-.701 2.235-1.752 3.003-3.153.767-1.401 1.151-3.136 1.151-5.204 0-2.068-.384-3.803-1.151-5.204-.734-1.401-1.718-2.452-2.952-3.152a7.884 7.884 0 0 0-3.953-1.051c-1.435 0-2.769.35-4.003 1.05-1.235.701-2.236 1.752-3.003 3.153-.767 1.401-1.151 3.136-1.151 5.204 0 2.068.384 3.803 1.151 5.204.767 1.401 1.752 2.452 2.952 3.152a7.883 7.883 0 0 0 3.953 1.051Zm-41.598 3.002-7.255-24.818h4.203l5.254 19.464 5.804-19.464h4.754l5.854 19.464 5.204-19.464h4.253l-7.255 24.818h-4.304l-6.104-20.465-6.105 20.465h-4.303Zm-18.087.601c-2.969 0-5.437-.75-7.405-2.252-1.968-1.501-3.119-3.536-3.453-6.105h4.303c.267 1.301.951 2.436 2.052 3.403 1.134.934 2.652 1.401 4.553 1.401 1.768 0 3.069-.367 3.903-1.1.834-.768 1.251-1.669 1.251-2.703 0-1.5-.55-2.502-1.651-3.002-1.068-.5-2.585-.95-4.554-1.351a25.84 25.84 0 0 1-4.003-1.15c-1.334-.501-2.451-1.202-3.352-2.102-.901-.934-1.351-2.152-1.351-3.653 0-2.169.801-3.937 2.402-5.304 1.634-1.401 3.836-2.102 6.605-2.102 2.635 0 4.787.667 6.455 2.002 1.701 1.3 2.685 3.169 2.952 5.604h-4.153c-.167-1.268-.718-2.252-1.652-2.952-.9-.734-2.118-1.101-3.652-1.101-1.501 0-2.669.317-3.503.95-.801.634-1.201 1.468-1.201 2.503 0 1 .517 1.784 1.551 2.351 1.068.567 2.502 1.051 4.304 1.451 1.534.334 2.985.75 4.353 1.251 1.401.467 2.535 1.184 3.402 2.152.901.934 1.351 2.302 1.351 4.103.034 2.235-.817 4.086-2.552 5.554-1.701 1.435-4.019 2.152-6.955 2.152Zm-23.517 0c-2.969 0-5.437-.75-7.405-2.252-1.969-1.501-3.119-3.536-3.453-6.105h4.303c.267 1.301.951 2.436 2.052 3.403 1.134.934 2.652 1.401 4.553 1.401 1.768 0 3.069-.367 3.903-1.1.834-.768 1.251-1.669 1.251-2.703 0-1.5-.55-2.502-1.651-3.002-1.068-.5-2.585-.95-4.554-1.351a25.84 25.84 0 0 1-4.003-1.15c-1.334-.501-2.451-1.202-3.352-2.102-.901-.934-1.351-2.152-1.351-3.653 0-2.169.8-3.937 2.402-5.304 1.634-1.401 3.836-2.102 6.605-2.102 2.635 0 4.787.667 6.454 2.002 1.702 1.3 2.686 3.169 2.953 5.604h-4.153c-.167-1.268-.718-2.252-1.652-2.952-.9-.734-2.118-1.101-3.652-1.101-1.502 0-2.669.317-3.503.95-.801.634-1.201 1.468-1.201 2.503 0 1 .517 1.784 1.551 2.351 1.068.567 2.502 1.051 4.303 1.451a33.15 33.15 0 0 1 4.354 1.251c1.401.467 2.535 1.184 3.402 2.152.901.934 1.351 2.302 1.351 4.103.034 2.235-.817 4.086-2.552 5.554-1.701 1.435-4.019 2.152-6.955 2.152Zm-26.821 0c-2.068 0-3.786-.35-5.153-1.051-1.368-.7-2.386-1.635-3.053-2.802a7.535 7.535 0 0 1-1-3.803c0-2.535.967-4.487 2.902-5.854 1.935-1.368 4.57-2.052 7.906-2.052h6.705v-.3c0-2.168-.567-3.803-1.702-4.904-1.134-1.134-2.652-1.701-4.553-1.701-1.635 0-3.052.417-4.253 1.25-1.168.801-1.902 1.986-2.202 3.553h-4.303c.167-1.8.767-3.319 1.801-4.553 1.068-1.234 2.385-2.168 3.953-2.802a12.65 12.65 0 0 1 5.004-1c3.469 0 6.071.933 7.806 2.801 1.768 1.835 2.652 4.287 2.652 7.356v15.261h-3.753l-.25-4.453c-.701 1.401-1.735 2.602-3.102 3.603-1.335.967-3.136 1.45-5.405 1.45Zm.651-3.553c1.601 0 2.969-.417 4.103-1.25a7.903 7.903 0 0 0 2.652-3.253c.601-1.335.901-2.736.901-4.203v-.05h-6.355c-2.469 0-4.22.433-5.254 1.3-1.001.834-1.501 1.885-1.501 3.153 0 1.3.467 2.352 1.401 3.152.967.767 2.318 1.151 4.053 1.151Zm-34.96 2.952V34.452h11.509c2.736 0 4.987.45 6.755 1.351 1.768.9 3.069 2.118 3.903 3.653.868 1.534 1.301 3.269 1.301 5.204 0 1.901-.417 3.62-1.251 5.154-.834 1.534-2.135 2.768-3.903 3.702-1.768.901-4.036 1.351-6.805 1.351h-7.305v14.611h-4.204Zm4.204-18.163h7.205c2.802 0 4.787-.584 5.955-1.752 1.2-1.2 1.801-2.835 1.801-4.903 0-2.102-.601-3.736-1.801-4.904-1.168-1.2-3.153-1.801-5.955-1.801h-7.205v13.36Z" id="svg_10" class=""/><g class=""><path style="" fill="#86ebb1" d="M70.4369991319988,25.15695432868592 C63.65302879751859,25.15695432868592 56.86905846303837,25.15695432868592 50.08508812855816,25.15695432868592 C50.08508812855816,32.28012317989015 50.08508812855816,39.403292031094374 50.08508812855816,46.52646088229861 C55.62521750221143,46.52646088229861 61.165686074381426,46.52646088229861 66.70581544803468,46.52646088229861 C66.70581544803468,50.031399155607815 66.70581544803468,53.536676627433735 66.70581544803468,57.04161490074294 C61.0523937697956,57.04161490074294 55.39931129007324,57.04161490074294 49.74588961183415,57.04161490074294 C49.74588961183415,64.61693537474028 49.74588961183415,72.19259504725433 49.74588961183415,79.76791552125167 C56.756105356969286,79.76791552125167 63.76598190358769,79.76791552125167 70.77619764872281,79.76791552125167 C70.77619764872281,83.27285379456087 70.77619764872281,86.7781312663868 70.77619764872281,90.283069539696 C60.03479821962357,90.283069539696 49.29373798904105,90.283069539696 38.552338559941795,90.283069539696 C38.552338559941795,65.0694261960501 38.552338559941795,39.855443653887484 38.552338559941795,14.641800310241585 C49.18044568445522,14.641800310241585 59.80889200748538,14.641800310241585 70.4369991319988,14.641800310241585 C70.4369991319988,18.146840343105815 70.4369991319988,21.652016055376713 70.4369991319988,25.15695432868592 z" id="svg_5" opacity="1" class=""/><g id="svg_6" class="" opacity="1"><path style="" fill="#5cb59b" d="M70.12292643657008,25.15695432868592 C70.12292643657008,21.652016055376713 70.12292643657008,18.146840343105815 70.12292643657008,14.641800310241585 C59.49481931205665,14.641800310241585 48.8663729890265,14.641800310241585 38.23826586451307,14.641800310241585 C38.23826586451307,39.855443653887484 38.23826586451307,65.0694261960501 38.23826586451307,90.283069539696 C37.899406546305784,65.01345844079066 37.78611424171996,39.686522792558925 37.89906734778906,14.302601793517574 C48.7534198829574,14.302601793517574 59.60777241812575,14.302601793517574 70.4621249532941,14.302601793517574 C70.57338206677959,17.98168458531289 70.46008976219375,21.599779483801214 70.12292643657008,25.15695432868592 z" id="svg_7" opacity="1"/></g><g id="svg_8" class="" opacity="1"><path style="" fill="#44948e" d="M66.39174275260596,57.04161490074294 C60.910973119379406,57.379456623400046 55.37084374572612,57.49274892798586 49.771015433129435,57.38081341746695 C49.771015433129435,64.73022767932609 49.771015433129435,72.07930274266852 49.771015433129435,79.42871700452766 C56.72695941558872,79.31678149400874 63.62388285613804,79.4297346000778 70.4621249532941,79.76791552125167 C63.451909208158966,79.76791552125167 56.44203266154055,79.76791552125167 49.431816916405424,79.76791552125167 C49.431816916405424,72.19259504725433 49.431816916405424,64.61693537474028 49.431816916405424,57.04161490074294 C55.08523859464451,57.04161490074294 60.73832107436688,57.04161490074294 66.39174275260596,57.04161490074294 z" id="svg_9" opacity="1"/></g></g></g></svg>